<?xml version="1.0" encoding="UTF-8" standalone="no"?>
<svg
   xmlns:dc="http://purl.org/dc/elements/1.1/"
   xmlns:cc="http://creativecommons.org/ns#"
   xmlns:rdf="http://www.w3.org/1999/02/22-rdf-syntax-ns#"
   xmlns:svg="http://www.w3.org/2000/svg"
   xmlns="http://www.w3.org/2000/svg"
   xmlns:sodipodi="http://sodipodi.sourceforge.net/DTD/sodipodi-0.dtd"
   xmlns:inkscape="http://www.inkscape.org/namespaces/inkscape"
   inkscape:version="1.0 (4035a4f, 2020-05-01)"
   height="68.497887"
   width="81.438263"
   sodipodi:docname="cart.svg"
   id="svg116"
   version="1.1"
   y="0px"
   x="0px"
   viewBox="0 0 81.438263 68.497887"
   data-name="Layer 1">
  <metadata
     id="metadata122">
    <rdf:RDF>
      <cc:Work
         rdf:about="">
        <dc:format>image/svg+xml</dc:format>
        <dc:type
           rdf:resource="http://purl.org/dc/dcmitype/StillImage" />
      </cc:Work>
    </rdf:RDF>
  </metadata>
  <defs
     id="defs120" />
  <sodipodi:namedview
     inkscape:current-layer="svg116"
     inkscape:window-maximized="0"
     inkscape:window-y="23"
     inkscape:window-x="0"
     inkscape:cy="45.379577"
     inkscape:cx="41.800352"
     inkscape:zoom="4.544"
     showgrid="false"
     id="namedview118"
     inkscape:window-height="684"
     inkscape:window-width="1138"
     inkscape:pageshadow="2"
     inkscape:pageopacity="0"
     guidetolerance="10"
     gridtolerance="10"
     objecttolerance="10"
     borderopacity="1"
     bordercolor="#666666"
     pagecolor="#ffffff" />
  <title
     id="title102">20</title>
  <g
     transform="translate(-9.3,-15.8)"
     id="g110"
     data-name="Group">
    <path
       id="path104"
       d="m 41.9,65.5 a 9.4,9.4 0 1 0 9.2,9.3 9.2,9.2 0 0 0 -9.2,-9.3 z"
       data-name="Path" />
    <path
       id="path106"
       d="m 70.6,65.5 a 9.4,9.4 0 1 0 9.1,9.3 9.2,9.2 0 0 0 -9.1,-9.3 z"
       data-name="Path" />
    <path
       id="path108"
       d="M 87.7,26.3 H 28.4 L 25.8,18 A 3,3 0 0 0 23,15.8 H 9.3 v 6 H 20.7 L 32.6,60 a 2.9,2.9 0 0 0 2.8,2.1 H 78.7 A 3.1,3.1 0 0 0 81.6,60 l 9,-29.8 a 3,3 0 0 0 -2.9,-3.9 z"
       data-name="Path" />
  </g>
</svg>
