<?xml version="1.0" encoding="UTF-8" standalone="no"?>
<svg
   xmlns:dc="http://purl.org/dc/elements/1.1/"
   xmlns:cc="http://creativecommons.org/ns#"
   xmlns:rdf="http://www.w3.org/1999/02/22-rdf-syntax-ns#"
   xmlns:svg="http://www.w3.org/2000/svg"
   xmlns="http://www.w3.org/2000/svg"
   xmlns:sodipodi="http://sodipodi.sourceforge.net/DTD/sodipodi-0.dtd"
   xmlns:inkscape="http://www.inkscape.org/namespaces/inkscape"
   data-name="Layer 1"
   viewBox="0 0 81.438263 68.497887"
   x="0px"
   y="0px"
   version="1.1"
   id="svg116"
   sodipodi:docname="cart_add.svg"
   width="81.438263"
   height="68.497887"
   inkscape:version="1.0 (4035a4f, 2020-05-01)">
  <metadata
     id="metadata122">
    <rdf:RDF>
      <cc:Work
         rdf:about="">
        <dc:format>image/svg+xml</dc:format>
        <dc:type
           rdf:resource="http://purl.org/dc/dcmitype/StillImage" />
      </cc:Work>
    </rdf:RDF>
  </metadata>
  <defs
     id="defs120">
    <inkscape:path-effect
       message="Utilise la règle de remplissage « fill-rule: evenodd » de la boîte de dialogue &lt;b&gt;Fond et contour&lt;/b&gt; en l'absence de résultat de mise à plat après une conversion en chemin."
       hide_clip="false"
       flatten="false"
       inverse="true"
       lpeversion="1"
       is_visible="true"
       id="path-effect926"
       effect="powerclip" />
    <clipPath
       id="clipPath922"
       clipPathUnits="userSpaceOnUse">
      <path
         d="m 55.225781,31.975781 v 10.494141 h -10.49414 v 3.878906 h 10.49414 v 10.494141 h 3.878907 V 46.348828 h 10.49414 V 42.469922 H 59.104688 V 31.975781 Z"
         style="display:none;fill:#ffffff;fill-opacity:1;fill-rule:evenodd;stroke-width:0.801418"
         id="path924" />
      <path
         d="M 4.3,10.8 H 95.738259 V 89.297883 H 4.3 Z m 50.925781,21.175781 v 10.494141 h -10.49414 v 3.878906 h 10.49414 v 10.494141 h 3.878907 V 46.348828 h 10.49414 V 42.469922 H 59.104688 V 31.975781 Z"
         class="powerclip"
         style="fill:#ffffff;fill-opacity:1;fill-rule:evenodd;stroke-width:0.801418"
         id="lpe_path-effect926" />
    </clipPath>
  </defs>
  <sodipodi:namedview
     inkscape:document-rotation="0"
     pagecolor="#ffffff"
     bordercolor="#666666"
     borderopacity="1"
     objecttolerance="10"
     gridtolerance="10"
     guidetolerance="10"
     inkscape:pageopacity="0"
     inkscape:pageshadow="2"
     inkscape:window-width="1138"
     inkscape:window-height="684"
     id="namedview118"
     showgrid="false"
     inkscape:zoom="4.544"
     inkscape:cx="28.926232"
     inkscape:cy="44.499295"
     inkscape:window-x="0"
     inkscape:window-y="23"
     inkscape:window-maximized="0"
     inkscape:current-layer="svg116" />
  <title
     id="title102">20</title>
  <g
     inkscape:path-effect="#path-effect926"
     clip-path="url(#clipPath922)"
     data-name="Group"
     id="g110"
     transform="translate(-9.3,-15.8)">
    <path
       inkscape:original-d="m 41.9,65.5 a 9.4,9.4 0 1 0 9.2,9.3 9.2,9.2 0 0 0 -9.2,-9.3 z"
       data-name="Path"
       d="m 41.9,65.5 a 9.4,9.4 0 1 0 9.2,9.3 9.2,9.2 0 0 0 -9.2,-9.3 z"
       id="path104" />
    <path
       inkscape:original-d="m 70.6,65.5 a 9.4,9.4 0 1 0 9.1,9.3 9.2,9.2 0 0 0 -9.1,-9.3 z"
       data-name="Path"
       d="m 70.6,65.5 a 9.4,9.4 0 1 0 9.1,9.3 9.2,9.2 0 0 0 -9.1,-9.3 z"
       id="path106" />
    <path
       inkscape:original-d="M 87.7,26.3 H 28.4 L 25.8,18 A 3,3 0 0 0 23,15.8 H 9.3 v 6 H 20.7 L 32.6,60 a 2.9,2.9 0 0 0 2.8,2.1 H 78.7 A 3.1,3.1 0 0 0 81.6,60 l 9,-29.8 a 3,3 0 0 0 -2.9,-3.9 z"
       data-name="Path"
       d="M 87.7,26.3 H 28.4 L 25.8,18 A 3,3 0 0 0 23,15.8 H 9.3 v 6 H 20.7 L 32.6,60 a 2.9,2.9 0 0 0 2.8,2.1 H 78.7 A 3.1,3.1 0 0 0 81.6,60 l 9,-29.8 a 3,3 0 0 0 -2.9,-3.9 z"
       id="path108" />
  </g>
</svg>
