<?xml version="1.0" encoding="UTF-8" standalone="no"?>
<svg
   xmlns:dc="http://purl.org/dc/elements/1.1/"
   xmlns:cc="http://creativecommons.org/ns#"
   xmlns:rdf="http://www.w3.org/1999/02/22-rdf-syntax-ns#"
   xmlns:svg="http://www.w3.org/2000/svg"
   xmlns="http://www.w3.org/2000/svg"
   xmlns:sodipodi="http://sodipodi.sourceforge.net/DTD/sodipodi-0.dtd"
   xmlns:inkscape="http://www.inkscape.org/namespaces/inkscape"
   inkscape:version="1.0 (4035a4f, 2020-05-01)"
   height="32.585571"
   width="32.585571"
   sodipodi:docname="edit.svg"
   id="svg843"
   version="1.1"
   y="0px"
   x="0px"
   viewBox="0 0 32.585571 32.585571">
  <metadata
     id="metadata849">
    <rdf:RDF>
      <cc:Work
         rdf:about="">
        <dc:format>image/svg+xml</dc:format>
        <dc:type
           rdf:resource="http://purl.org/dc/dcmitype/StillImage" />
      </cc:Work>
    </rdf:RDF>
  </metadata>
  <defs
     id="defs847" />
  <sodipodi:namedview
     inkscape:current-layer="svg843"
     inkscape:window-maximized="0"
     inkscape:window-y="23"
     inkscape:window-x="0"
     inkscape:cy="10.077098"
     inkscape:cx="13.864407"
     inkscape:zoom="9.8333333"
     showgrid="false"
     id="namedview845"
     inkscape:window-height="649"
     inkscape:window-width="1440"
     inkscape:pageshadow="2"
     inkscape:pageopacity="0"
     guidetolerance="10"
     gridtolerance="10"
     objecttolerance="10"
     borderopacity="1"
     bordercolor="#666666"
     pagecolor="#ffffff" />
  <title
     id="title833">edit-02</title>
  <g
     transform="translate(-8,-7.4144271)"
     id="g837"
     data-name="icons">
    <path
       id="path835"
       d="m 36,20 h 2 v 18 a 2,2 0 0 1 -2,2 H 10 A 2,2 0 0 1 8,38 V 12 a 2,2 0 0 1 2,-2 h 18 v 2 H 10 V 38 H 36 Z M 40,12.414 21.511,30.9 15.625,32.372 17.1,26.489 35.586,8 a 2,2 0 0 1 2.828,0 L 40,9.586 a 2,2 0 0 1 0,2.828 z M 34.586,15 33,13.414 18.9,27.514 18.372,29.628 20.486,29.1 Z m 4,-4 L 37,9.414 34.414,12 36,13.586 Z" />
  </g>
</svg>
