<?xml version="1.0" encoding="UTF-8" standalone="no"?>
<svg
   xmlns:dc="http://purl.org/dc/elements/1.1/"
   xmlns:cc="http://creativecommons.org/ns#"
   xmlns:rdf="http://www.w3.org/1999/02/22-rdf-syntax-ns#"
   xmlns:svg="http://www.w3.org/2000/svg"
   xmlns="http://www.w3.org/2000/svg"
   xmlns:sodipodi="http://sodipodi.sourceforge.net/DTD/sodipodi-0.dtd"
   xmlns:inkscape="http://www.inkscape.org/namespaces/inkscape"
   inkscape:version="1.0 (4035a4f, 2020-05-01)"
   height="292"
   width="367.27689"
   sodipodi:docname="home.svg"
   id="svg154"
   clip-rule="evenodd"
   fill-rule="evenodd"
   y="0px"
   x="0px"
   viewBox="0 0 367.27689 292"
   style="image-rendering:optimizeQuality;shape-rendering:geometricPrecision;text-rendering:geometricPrecision"
   version="1.1"
   xml:space="preserve"><metadata
     id="metadata158"><rdf:RDF><cc:Work
         rdf:about=""><dc:format>image/svg+xml</dc:format><dc:type
           rdf:resource="http://purl.org/dc/dcmitype/StillImage" /></cc:Work></rdf:RDF></metadata><sodipodi:namedview
     inkscape:current-layer="svg154"
     inkscape:window-maximized="0"
     inkscape:window-y="23"
     inkscape:window-x="0"
     inkscape:cy="139.81356"
     inkscape:cx="174.35878"
     inkscape:zoom="1.6164384"
     showgrid="false"
     id="namedview156"
     inkscape:window-height="722"
     inkscape:window-width="1270"
     inkscape:pageshadow="2"
     inkscape:pageopacity="0"
     guidetolerance="10"
     gridtolerance="10"
     objecttolerance="10"
     borderopacity="1"
     bordercolor="#666666"
     pagecolor="#ffffff" /><defs
     id="defs142"><style
       id="style140"
       type="text/css">
   
    .fil0 {fill:black}
   
  </style></defs><g
     transform="translate(0.13843876)"
     id="g148"><path
       id="path144"
       d="M 183,59 52,168 v 109 c 0,8 7,15 15,15 h 80 v -89 h 73 v 89 h 80 c 8,0 15,-7 15,-15 V 168 Z"
       class="fil0" /><path
       id="path146"
       d="M 364,142 315,101 V 8 c 0,-4 -3,-7 -8,-7 h -43 c -5,0 -8,3 -8,7 V 52 L 201,6 C 191,-2 176,-2 166,6 L 3,142 c -4,3 -4,8 -1,11 l 14,16 c 3,4 7,4 10,1 L 183,39 341,170 c 3,3 8,2 10,-1 l 14,-16 c 3,-4 3,-8 -1,-11 z"
       class="fil0" /></g></svg>
