<?xml version="1.0" encoding="UTF-8" standalone="no"?>
<svg
   xmlns:dc="http://purl.org/dc/elements/1.1/"
   xmlns:cc="http://creativecommons.org/ns#"
   xmlns:rdf="http://www.w3.org/1999/02/22-rdf-syntax-ns#"
   xmlns:svg="http://www.w3.org/2000/svg"
   xmlns="http://www.w3.org/2000/svg"
   xmlns:sodipodi="http://sodipodi.sourceforge.net/DTD/sodipodi-0.dtd"
   xmlns:inkscape="http://www.inkscape.org/namespaces/inkscape"
   inkscape:version="1.0 (4035a4f, 2020-05-01)"
   height="96.599998"
   width="96.599998"
   sodipodi:docname="noun_Plus_869752.svg"
   id="svg839"
   xml:space="preserve"
   viewBox="0 0 96.599998 96.599998"
   y="0px"
   x="0px"
   version="1.1"><metadata
     id="metadata845"><rdf:RDF><cc:Work
         rdf:about=""><dc:format>image/svg+xml</dc:format><dc:type
           rdf:resource="http://purl.org/dc/dcmitype/StillImage" /></cc:Work></rdf:RDF></metadata><defs
     id="defs843" /><sodipodi:namedview
     inkscape:current-layer="svg839"
     inkscape:window-maximized="0"
     inkscape:window-y="23"
     inkscape:window-x="0"
     inkscape:cy="4.2322034"
     inkscape:cx="45.969492"
     inkscape:zoom="4.72"
     showgrid="false"
     id="namedview841"
     inkscape:window-height="687"
     inkscape:window-width="1261"
     inkscape:pageshadow="2"
     inkscape:pageopacity="0"
     guidetolerance="10"
     gridtolerance="10"
     objecttolerance="10"
     borderopacity="1"
     bordercolor="#666666"
     pagecolor="#ffffff" /><path
     id="path833"
     d="M 48.3,0 C 21.6,0 0,21.6 0,48.3 0,75 21.6,96.6 48.3,96.6 75,96.6 96.6,75 96.6,48.3 96.6,21.6 75,0 48.3,0 Z M 72.2,51.1 H 50.4 v 21.8 c 0,1.5 -1.2,2.7 -2.7,2.7 -1.5,0 -2.7,-1.2 -2.7,-2.7 V 51.1 H 23.3 c -1.5,0 -2.7,-1.2 -2.7,-2.7 0,-1.5 1.2,-2.7 2.7,-2.7 H 45.1 V 23.9 c 0,-1.5 1.2,-2.7 2.7,-2.7 1.5,0 2.7,1.2 2.7,2.7 v 21.8 h 21.8 c 1.5,0 2.7,1.2 2.7,2.7 -0.1,1.5 -1.3,2.7 -2.8,2.7 z" /></svg>
